<svg width="233" height="121" viewBox="0 0 233 121" fill="none" xmlns="http://www.w3.org/2000/svg">
<path d="M1.57346 28V7.21006H16.0696V11.2909H6.59837V15.5545H15.3285V19.6454H6.59837V23.9192H16.0696V28H1.57346ZM36.9103 7.21006V28H32.6467L24.3734 16.0011H24.2414V28H19.2165V7.21006H23.541L31.7229 19.1886H31.8955V7.21006H36.9103ZM53.7133 14.0013C53.5982 13.5749 53.429 13.1993 53.2057 12.8745C52.9824 12.5429 52.7083 12.262 52.3835 12.0319C52.0586 11.8018 51.6864 11.6293 51.2668 11.5142C50.8472 11.3924 50.387 11.3315 49.8862 11.3315C48.8779 11.3315 48.0048 11.5751 47.2672 12.0624C46.5363 12.5497 45.9712 13.2603 45.5719 14.1942C45.1726 15.1213 44.973 16.2481 44.973 17.5746C44.973 18.9078 45.1658 20.0447 45.5516 20.9854C45.9374 21.9261 46.4957 22.6435 47.2266 23.1375C47.9575 23.6315 48.844 23.8786 49.8862 23.8786C50.8066 23.8786 51.5849 23.7297 52.221 23.4319C52.8639 23.1274 53.3512 22.6976 53.6828 22.1427C54.0144 21.5877 54.1802 20.9347 54.1802 20.1835L55.1142 20.2951H50.0588V16.6305H59.0224V19.3815C59.0224 21.2426 58.6265 22.8364 57.8347 24.1628C57.0497 25.4892 55.9669 26.5078 54.5863 27.2183C53.2125 27.9289 51.6323 28.2842 49.8456 28.2842C47.8627 28.2842 46.1201 27.8545 44.6177 26.995C43.1153 26.1355 41.9445 24.9106 41.1053 23.3202C40.2661 21.7231 39.8465 19.8282 39.8465 17.6355C39.8465 15.9301 40.1003 14.4175 40.6079 13.0978C41.1155 11.7714 41.8227 10.648 42.7295 9.72759C43.6431 8.8072 44.6989 8.11014 45.8967 7.63641C47.1014 7.16268 48.3974 6.92582 49.7847 6.92582C50.9893 6.92582 52.1094 7.09839 53.1448 7.44354C54.187 7.78868 55.1074 8.27595 55.906 8.90533C56.7113 9.53471 57.3644 10.2825 57.8652 11.1488C58.366 12.015 58.6773 12.9659 58.7991 14.0013H53.7133ZM67.009 7.21006V28H61.9841V7.21006H67.009ZM87.8573 7.21006V28H83.5937L75.3204 16.0011H75.1884V28H70.1635V7.21006H74.488L82.67 19.1886H82.8425V7.21006H87.8573ZM91.0169 28V7.21006H105.513V11.2909H96.0418V15.5545H104.772V19.6454H96.0418V23.9192H105.513V28H91.0169ZM108.66 28V7.21006H123.156V11.2909H113.685V15.5545H122.415V19.6454H113.685V23.9192H123.156V28H108.66ZM126.303 28V7.21006H134.891C136.448 7.21006 137.791 7.49091 138.921 8.05262C140.058 8.60756 140.934 9.40613 141.55 10.4483C142.166 11.4838 142.474 12.7121 142.474 14.1333C142.474 15.5748 142.159 16.7997 141.53 17.8081C140.901 18.8097 140.007 19.5744 138.85 20.1023C137.693 20.6234 136.322 20.8839 134.739 20.8839H129.308V16.9249H133.805C134.563 16.9249 135.196 16.8268 135.703 16.6305C136.217 16.4275 136.607 16.1229 136.871 15.7169C137.134 15.3041 137.266 14.7762 137.266 14.1333C137.266 13.4904 137.134 12.9591 136.871 12.5395C136.607 12.1132 136.217 11.7951 135.703 11.5853C135.189 11.3687 134.556 11.2604 133.805 11.2604H131.328V28H126.303ZM138.007 18.4983L143.185 28H137.703L132.627 18.4983H138.007ZM156.468 13.443C156.4 12.6985 156.099 12.1199 155.564 11.7071C155.036 11.2875 154.282 11.0777 153.3 11.0777C152.651 11.0777 152.109 11.1623 151.676 11.3315C151.243 11.5007 150.918 11.7342 150.702 12.0319C150.485 12.3229 150.373 12.6579 150.367 13.0369C150.353 13.3482 150.414 13.6223 150.549 13.8592C150.692 14.096 150.895 14.3058 151.159 14.4886C151.429 14.6645 151.754 14.8202 152.133 14.9555C152.512 15.0909 152.938 15.2093 153.412 15.3108L155.199 15.7169C156.227 15.9402 157.134 16.238 157.919 16.6102C158.711 16.9824 159.374 17.4257 159.909 17.94C160.45 18.4544 160.86 19.0465 161.137 19.7165C161.415 20.3865 161.557 21.1377 161.564 21.9701C161.557 23.283 161.225 24.4098 160.569 25.3505C159.912 26.2912 158.968 27.0119 157.737 27.5127C156.512 28.0135 155.033 28.2639 153.3 28.2639C151.561 28.2639 150.045 28.0034 148.753 27.4823C147.46 26.9612 146.455 26.1694 145.738 25.1069C145.02 24.0444 144.652 22.701 144.631 21.0768H149.443C149.484 21.7468 149.663 22.3051 149.981 22.7518C150.299 23.1984 150.736 23.5368 151.29 23.7669C151.852 23.997 152.502 24.112 153.24 24.112C153.916 24.112 154.492 24.0207 154.965 23.838C155.446 23.6552 155.815 23.4014 156.072 23.0766C156.329 22.7518 156.461 22.3795 156.468 21.96C156.461 21.5674 156.339 21.2324 156.102 20.955C155.865 20.6707 155.5 20.4271 155.006 20.2241C154.519 20.0143 153.896 19.8214 153.138 19.6454L150.966 19.1379C149.165 18.7251 147.748 18.0585 146.712 17.1381C145.677 16.2109 145.162 14.9589 145.169 13.3821C145.162 12.0962 145.508 10.9694 146.205 10.0017C146.902 9.03391 147.866 8.27933 149.098 7.73793C150.329 7.19652 151.734 6.92582 153.311 6.92582C154.921 6.92582 156.319 7.1999 157.503 7.74808C158.694 8.28948 159.618 9.05083 160.274 10.0321C160.931 11.0134 161.266 12.1504 161.279 13.443H156.468Z" fill="#2A5390"/>
<path d="M27.502 93.9999V73.21H36.1713C37.7278 73.21 39.0306 73.4299 40.0796 73.8698C41.1353 74.3097 41.9271 74.9255 42.455 75.7173C42.9896 76.5091 43.2569 77.4262 43.2569 78.4684C43.2569 79.2602 43.0911 79.9674 42.7595 80.59C42.4279 81.2058 41.9711 81.7168 41.3891 82.1228C40.8071 82.5289 40.1337 82.8131 39.369 82.9756V83.1786C40.2081 83.2192 40.983 83.4459 41.6936 83.8587C42.411 84.2715 42.9862 84.8468 43.4193 85.5844C43.8525 86.3153 44.069 87.1816 44.069 88.1832C44.069 89.2998 43.7848 90.2981 43.2163 91.1778C42.6478 92.0509 41.8256 92.7411 40.7495 93.2487C39.6735 93.7495 38.3674 93.9999 36.8311 93.9999H27.502ZM32.527 89.9495H35.6333C36.7228 89.9495 37.5248 89.7431 38.0391 89.3303C38.5602 88.9175 38.8208 88.3422 38.8208 87.6046C38.8208 87.0699 38.6956 86.6097 38.4452 86.224C38.1948 85.8315 37.8395 85.5303 37.3793 85.3205C36.9191 85.104 36.3675 84.9957 35.7246 84.9957H32.527V89.9495ZM32.527 81.7574H35.3084C35.8566 81.7574 36.3439 81.666 36.7702 81.4833C37.1966 81.3006 37.5282 81.0366 37.7651 80.6915C38.0087 80.3464 38.1305 79.9302 38.1305 79.4429C38.1305 78.7458 37.8835 78.1977 37.3895 77.7984C36.8954 77.3991 36.2288 77.1994 35.3896 77.1994H32.527V81.7574ZM66.1076 83.6049C66.1076 85.8924 65.6677 87.8313 64.7879 89.4217C63.9081 91.012 62.717 92.22 61.2146 93.0457C59.719 93.8713 58.0407 94.2841 56.1796 94.2841C54.3117 94.2841 52.63 93.8679 51.1344 93.0355C49.6387 92.2031 48.451 90.9951 47.5712 89.4115C46.6982 87.8211 46.2617 85.8856 46.2617 83.6049C46.2617 81.3175 46.6982 79.3786 47.5712 77.7882C48.451 76.1978 49.6387 74.9898 51.1344 74.1642C52.63 73.3385 54.3117 72.9257 56.1796 72.9257C58.0407 72.9257 59.719 73.3385 61.2146 74.1642C62.717 74.9898 63.9081 76.1978 64.7879 77.7882C65.6677 79.3786 66.1076 81.3175 66.1076 83.6049ZM60.971 83.6049C60.971 82.2514 60.7781 81.1077 60.3924 80.1738C60.0134 79.2399 59.4652 78.5326 58.7479 78.0522C58.0373 77.5717 57.1812 77.3314 56.1796 77.3314C55.1848 77.3314 54.3287 77.5717 53.6113 78.0522C52.8939 78.5326 52.3424 79.2399 51.9566 80.1738C51.5776 81.1077 51.3881 82.2514 51.3881 83.6049C51.3881 84.9584 51.5776 86.1022 51.9566 87.0361C52.3424 87.97 52.8939 88.6772 53.6113 89.1577C54.3287 89.6382 55.1848 89.8785 56.1796 89.8785C57.1812 89.8785 58.0373 89.6382 58.7479 89.1577C59.4652 88.6772 60.0134 87.97 60.3924 87.0361C60.7781 86.1022 60.971 84.9584 60.971 83.6049ZM69.0413 93.9999V73.21H77.6294C79.1859 73.21 80.5293 73.4908 81.6594 74.0525C82.7964 74.6075 83.6728 75.406 84.2886 76.4482C84.9045 77.4837 85.2124 78.712 85.2124 80.1332C85.2124 81.5747 84.8977 82.7996 84.2683 83.808C83.639 84.8096 82.7456 85.5743 81.5884 86.1022C80.4311 86.6233 79.0607 86.8838 77.4771 86.8838H72.0461V82.9248H76.5432C77.3011 82.9248 77.9339 82.8267 78.4415 82.6304C78.9558 82.4274 79.3449 82.1228 79.6089 81.7168C79.8728 81.304 80.0048 80.7761 80.0048 80.1332C80.0048 79.4903 79.8728 78.959 79.6089 78.5394C79.3449 78.1131 78.9558 77.795 78.4415 77.5852C77.9271 77.3686 77.2944 77.2603 76.5432 77.2603H74.0662V93.9999H69.0413ZM80.7458 84.4983L85.923 93.9999H80.4413L75.3656 84.4983H80.7458ZM95.6531 93.9999H87.9685V73.21H95.6429C97.7612 73.21 99.585 73.6262 101.114 74.4586C102.651 75.2842 103.835 76.4753 104.667 78.0319C105.5 79.5816 105.916 81.4359 105.916 83.5948C105.916 85.7604 105.5 87.6215 104.667 89.178C103.842 90.7346 102.661 91.929 101.125 92.7614C99.5884 93.5871 97.7645 93.9999 95.6531 93.9999ZM92.9934 89.716H95.4602C96.6242 89.716 97.6089 89.5198 98.4142 89.1273C99.2263 88.728 99.8388 88.0817 100.252 87.1884C100.671 86.2883 100.881 85.0904 100.881 83.5948C100.881 82.0992 100.671 80.9081 100.252 80.0215C99.832 79.1282 99.2128 78.4853 98.3939 78.0928C97.5818 77.6935 96.5802 77.4938 95.3891 77.4938H92.9934V89.716ZM108.85 93.9999V73.21H123.346V77.2908H113.875V81.5544H122.605V85.6454H113.875V89.9191H123.346V93.9999H108.85ZM126.493 93.9999V73.21H135.081C136.637 73.21 137.981 73.4908 139.111 74.0525C140.248 74.6075 141.124 75.406 141.74 76.4482C142.356 77.4837 142.664 78.712 142.664 80.1332C142.664 81.5747 142.349 82.7996 141.72 83.808C141.09 84.8096 140.197 85.5743 139.04 86.1022C137.883 86.6233 136.512 86.8838 134.929 86.8838H129.498V82.9248H133.995C134.753 82.9248 135.385 82.8267 135.893 82.6304C136.407 82.4274 136.796 82.1228 137.06 81.7168C137.324 81.304 137.456 80.7761 137.456 80.1332C137.456 79.4903 137.324 78.959 137.06 78.5394C136.796 78.1131 136.407 77.795 135.893 77.5852C135.379 77.3686 134.746 77.2603 133.995 77.2603H131.518V93.9999H126.493ZM138.197 84.4983L143.375 93.9999H137.893L132.817 84.4983H138.197ZM156.658 79.4429C156.59 78.6985 156.289 78.1198 155.754 77.707C155.226 77.2874 154.472 77.0776 153.49 77.0776C152.841 77.0776 152.299 77.1622 151.866 77.3314C151.433 77.5006 151.108 77.7341 150.892 78.0319C150.675 78.3229 150.563 78.6579 150.557 79.0368C150.543 79.3481 150.604 79.6222 150.739 79.8591C150.881 80.096 151.084 80.3058 151.348 80.4885C151.619 80.6644 151.944 80.8201 152.323 80.9554C152.702 81.0908 153.128 81.2092 153.602 81.3107L155.389 81.7168C156.417 81.9401 157.324 82.2379 158.109 82.6101C158.901 82.9823 159.564 83.4256 160.099 83.9399C160.64 84.4543 161.05 85.0464 161.327 85.7164C161.605 86.3864 161.747 87.1376 161.754 87.97C161.747 89.2829 161.415 90.4097 160.759 91.3504C160.102 92.2911 159.158 93.0118 157.926 93.5126C156.702 94.0134 155.223 94.2638 153.49 94.2638C151.751 94.2638 150.235 94.0033 148.943 93.4822C147.65 92.9611 146.645 92.1693 145.928 91.1068C145.21 90.0443 144.841 88.7009 144.821 87.0767H149.633C149.673 87.7467 149.853 88.305 150.171 88.7517C150.489 89.1983 150.925 89.5367 151.48 89.7668C152.042 89.9969 152.692 90.1119 153.429 90.1119C154.106 90.1119 154.681 90.0206 155.155 89.8379C155.636 89.6551 156.004 89.4014 156.262 89.0765C156.519 88.7517 156.651 88.3794 156.658 87.9599C156.651 87.5673 156.529 87.2323 156.292 86.9549C156.055 86.6706 155.69 86.427 155.196 86.224C154.708 86.0142 154.086 85.8213 153.328 85.6454L151.156 85.1378C149.355 84.725 147.938 84.0584 146.902 83.138C145.867 82.2108 145.352 80.9588 145.359 79.382C145.352 78.0961 145.697 76.9693 146.395 76.0016C147.092 75.0338 148.056 74.2792 149.288 73.7378C150.519 73.1964 151.924 72.9257 153.5 72.9257C155.111 72.9257 156.509 73.1998 157.693 73.748C158.884 74.2894 159.808 75.0507 160.464 76.032C161.121 77.0133 161.456 78.1503 161.469 79.4429H156.658Z" fill="#2A5390"/>
<path d="M92.5578 62L86.5076 41.2101H92.0603L95.1971 54.8332H95.3697L98.9531 41.2101H103.481L107.064 54.8636H107.237L110.384 41.2101H115.926L109.886 62H105.044L101.298 49.392H101.136L97.3898 62H92.5578ZM123.027 41.2101V62H118.002V41.2101H123.027ZM125.501 45.2909V41.2101H143.073V45.2909H136.769V62H131.816V45.2909H125.501ZM145.527 62V41.2101H150.552V49.5545H158.744V41.2101H163.759V62H158.744V53.6454H150.552V62H145.527Z" fill="#2A5390"/>
<path d="M191.196 51.605C191.196 53.8925 190.756 55.8314 189.876 57.4217C188.997 59.0121 187.805 60.2201 186.303 61.0458C184.807 61.8714 183.129 62.2842 181.268 62.2842C179.4 62.2842 177.718 61.868 176.223 61.0356C174.727 60.2032 173.539 58.9952 172.66 57.4116C171.787 55.8212 171.35 53.8857 171.35 51.605C171.35 49.3176 171.787 47.3787 172.66 45.7883C173.539 44.1979 174.727 42.9899 176.223 42.1643C177.718 41.3386 179.4 40.9258 181.268 40.9258C183.129 40.9258 184.807 41.3386 186.303 42.1643C187.805 42.9899 188.997 44.1979 189.876 45.7883C190.756 47.3787 191.196 49.3176 191.196 51.605ZM186.059 51.605C186.059 50.2515 185.867 49.1078 185.481 48.1739C185.102 47.24 184.554 46.5327 183.836 46.0522C183.126 45.5717 182.27 45.3315 181.268 45.3315C180.273 45.3315 179.417 45.5717 178.7 46.0522C177.982 46.5327 177.431 47.24 177.045 48.1739C176.666 49.1078 176.477 50.2515 176.477 51.605C176.477 52.9585 176.666 54.1023 177.045 55.0362C177.431 55.9701 177.982 56.6773 178.7 57.1578C179.417 57.6383 180.273 57.8786 181.268 57.8786C182.27 57.8786 183.126 57.6383 183.836 57.1578C184.554 56.6773 185.102 55.9701 185.481 55.0362C185.867 54.1023 186.059 52.9585 186.059 51.605ZM206.707 41.2101H211.722V54.62C211.722 56.1697 211.353 57.5199 210.616 58.6704C209.878 59.8141 208.849 60.7006 207.53 61.33C206.21 61.9526 204.677 62.2639 202.931 62.2639C201.165 62.2639 199.622 61.9526 198.302 61.33C196.982 60.7006 195.957 59.8141 195.226 58.6704C194.495 57.5199 194.13 56.1697 194.13 54.62V41.2101H199.155V54.1835C199.155 54.9008 199.31 55.5404 199.622 56.1021C199.94 56.6638 200.383 57.1037 200.951 57.4217C201.52 57.7398 202.18 57.8989 202.931 57.8989C203.682 57.8989 204.339 57.7398 204.9 57.4217C205.469 57.1037 205.912 56.6638 206.23 56.1021C206.548 55.5404 206.707 54.9008 206.707 54.1835V41.2101ZM214.191 45.2909V41.2101H231.763V45.2909H225.459V62H220.505V45.2909H214.191Z" fill="#2A5390"/>
<path d="M168.368 0.011098L168.368 120.236" stroke="#2A5390" stroke-width="2.75703"/>
<path d="M75.3767 114.883V104.488H79.4779C80.2663 104.488 80.938 104.638 81.4929 104.94C82.0479 105.237 82.4708 105.652 82.7618 106.183C83.0562 106.711 83.2034 107.32 83.2034 108.01C83.2034 108.701 83.0545 109.31 82.7568 109.838C82.459 110.366 82.0276 110.777 81.4625 111.071C80.9008 111.365 80.2206 111.513 79.422 111.513H76.8081V109.751H79.0667C79.4897 109.751 79.8382 109.679 80.1123 109.533C80.3898 109.384 80.5962 109.18 80.7316 108.919C80.8703 108.655 80.9397 108.352 80.9397 108.01C80.9397 107.665 80.8703 107.364 80.7316 107.107C80.5962 106.846 80.3898 106.645 80.1123 106.503C79.8349 106.357 79.483 106.285 79.0566 106.285H77.5745V114.883H75.3767ZM91.7663 104.488H93.9641V111.239C93.9641 111.997 93.7831 112.66 93.421 113.228C93.0623 113.797 92.5598 114.24 91.9135 114.558C91.2672 114.873 90.5143 115.03 89.6548 115.03C88.792 115.03 88.0374 114.873 87.3911 114.558C86.7448 114.24 86.2423 113.797 85.8836 113.228C85.5249 112.66 85.3456 111.997 85.3456 111.239V104.488H87.5434V111.051C87.5434 111.447 87.6297 111.799 87.8022 112.106C87.9782 112.414 88.2252 112.656 88.5433 112.832C88.8614 113.008 89.2319 113.096 89.6548 113.096C90.0812 113.096 90.4517 113.008 90.7664 112.832C91.0845 112.656 91.3298 112.414 91.5024 112.106C91.6783 111.799 91.7663 111.447 91.7663 111.051V104.488ZM96.487 114.883V104.488H98.6847V113.071H103.141V114.883H96.487ZM114.078 108.127H111.855C111.814 107.84 111.732 107.584 111.606 107.361C111.481 107.134 111.32 106.941 111.124 106.782C110.928 106.623 110.701 106.501 110.444 106.417C110.19 106.332 109.914 106.29 109.617 106.29C109.079 106.29 108.61 106.423 108.211 106.691C107.811 106.955 107.502 107.34 107.282 107.848C107.062 108.352 106.952 108.965 106.952 109.685C106.952 110.426 107.062 111.049 107.282 111.553C107.505 112.057 107.817 112.438 108.216 112.695C108.615 112.952 109.077 113.081 109.601 113.081C109.896 113.081 110.168 113.042 110.419 112.964C110.672 112.886 110.897 112.773 111.094 112.624C111.29 112.472 111.452 112.288 111.581 112.071C111.713 111.854 111.804 111.607 111.855 111.33L114.078 111.34C114.021 111.817 113.877 112.277 113.647 112.721C113.42 113.161 113.114 113.555 112.728 113.903C112.346 114.248 111.889 114.523 111.358 114.726C110.83 114.925 110.233 115.025 109.566 115.025C108.639 115.025 107.81 114.815 107.079 114.396C106.351 113.976 105.776 113.369 105.353 112.573C104.934 111.778 104.724 110.816 104.724 109.685C104.724 108.552 104.937 107.587 105.363 106.792C105.79 105.997 106.368 105.391 107.099 104.975C107.83 104.556 108.652 104.346 109.566 104.346C110.168 104.346 110.727 104.43 111.241 104.6C111.759 104.769 112.217 105.016 112.616 105.341C113.016 105.662 113.341 106.056 113.591 106.523C113.845 106.99 114.007 107.525 114.078 108.127ZM116.369 114.883V104.488H118.567V108.777H123.028V104.488H125.221V114.883H123.028V110.589H118.567V114.883H116.369ZM137.3 109.685C137.3 110.819 137.085 111.783 136.655 112.579C136.229 113.374 135.647 113.981 134.909 114.401C134.175 114.817 133.349 115.025 132.432 115.025C131.509 115.025 130.68 114.815 129.945 114.396C129.211 113.976 128.631 113.369 128.204 112.573C127.778 111.778 127.565 110.816 127.565 109.685C127.565 108.552 127.778 107.587 128.204 106.792C128.631 105.997 129.211 105.391 129.945 104.975C130.68 104.556 131.509 104.346 132.432 104.346C133.349 104.346 134.175 104.556 134.909 104.975C135.647 105.391 136.229 105.997 136.655 106.792C137.085 107.587 137.3 108.552 137.3 109.685ZM135.072 109.685C135.072 108.951 134.962 108.332 134.742 107.828C134.525 107.324 134.219 106.941 133.823 106.681C133.427 106.42 132.964 106.29 132.432 106.29C131.901 106.29 131.438 106.42 131.042 106.681C130.646 106.941 130.338 107.324 130.118 107.828C129.901 108.332 129.793 108.951 129.793 109.685C129.793 110.42 129.901 111.039 130.118 111.543C130.338 112.047 130.646 112.43 131.042 112.69C131.438 112.951 131.901 113.081 132.432 113.081C132.964 113.081 133.427 112.951 133.823 112.69C134.219 112.43 134.525 112.047 134.742 111.543C134.962 111.039 135.072 110.42 135.072 109.685ZM141.592 114.883L138.617 104.488H141.018L142.739 111.711H142.825L144.723 104.488H146.779L148.672 111.726H148.764L150.484 104.488H152.885L149.911 114.883H147.769L145.789 108.087H145.708L143.734 114.883H141.592ZM154.776 114.883V104.488H156.974V109.071H157.111L160.852 104.488H163.486L159.628 109.142L163.531 114.883H160.902L158.055 110.609L156.974 111.929V114.883H154.776Z" fill="#2A5390"/>
</svg>
